<svg width="40" height="40" viewBox="0 0 40 40" fill="none" xmlns="http://www.w3.org/2000/svg">
<path d="M36.6047 4.56566C36.4969 4.47249 36.3657 4.41057 36.2252 4.38661C36.0847 4.36265 35.9404 4.37756 35.8078 4.42973L4.14218 16.8219C3.81938 16.9472 3.54605 17.174 3.36339 17.4682C3.18074 17.7624 3.09865 18.108 3.12951 18.4529C3.16037 18.7978 3.30249 19.1233 3.53447 19.3804C3.76645 19.6374 4.0757 19.8122 4.41562 19.8782L13.125 21.5875V31.25C13.1249 31.6239 13.2366 31.9892 13.4457 32.299C13.6548 32.6089 13.9518 32.8492 14.2984 32.9891C14.5215 33.0786 14.7596 33.1247 15 33.125C15.2516 33.1245 15.5005 33.0733 15.7319 32.9745C15.9633 32.8757 16.1724 32.7313 16.3469 32.55L20.7219 28.0188L27.4406 33.911C27.7812 34.2114 28.2193 34.3779 28.6734 34.3797C28.8718 34.3789 29.0688 34.3478 29.2578 34.2875C29.5671 34.1896 29.8454 34.0123 30.0647 33.7732C30.284 33.5341 30.4368 33.2416 30.5078 32.925L36.8547 5.33129C36.8865 5.193 36.88 5.04866 36.8359 4.91378C36.7919 4.77889 36.712 4.65855 36.6047 4.56566ZM4.375 18.3407C4.36583 18.2651 4.38286 18.1886 4.42323 18.1241C4.46361 18.0596 4.5249 18.0108 4.59687 17.986L31.8859 7.30629L13.6047 20.4079L4.65781 18.6516C4.58197 18.6405 4.51234 18.6034 4.46077 18.5467C4.4092 18.49 4.37889 18.4172 4.375 18.3407ZM15.4484 31.6813C15.362 31.7703 15.2511 31.8316 15.1297 31.8573C15.0084 31.8831 14.8821 31.8721 14.767 31.8259C14.6519 31.7797 14.5531 31.7002 14.4833 31.5976C14.4135 31.4951 14.3758 31.3741 14.375 31.25V22.4532L19.7781 27.1875L15.4484 31.6813ZM29.2891 32.6407C29.2649 32.7468 29.2134 32.8447 29.1398 32.9248C29.0661 33.0049 28.9728 33.0644 28.8691 33.0974C28.7654 33.1304 28.6549 33.1358 28.5485 33.1129C28.4421 33.0901 28.3435 33.0399 28.2625 32.9672L14.7547 21.1219L35.3328 6.37504L29.2891 32.6407Z" fill="#F8F8F8"/>
</svg>
