<svg width="40" height="40" viewBox="0 0 40 40" fill="none" xmlns="http://www.w3.org/2000/svg">
<g clip-path="url(#clip0_46_208)">
<path d="M25.2865 27.7679V32.4777C25.2865 33.4747 24.9479 33.9732 24.2708 33.9732C23.8715 33.9732 23.4809 33.8095 23.099 33.4821V26.7634C23.4809 26.436 23.8715 26.2723 24.2708 26.2723C24.9479 26.2723 25.2865 26.7708 25.2865 27.7679ZM34.0885 27.7902V28.817H31.7448V27.7902C31.7448 26.7783 32.1354 26.2723 32.9167 26.2723C33.6979 26.2723 34.0885 26.7783 34.0885 27.7902ZM8.93229 22.9241H11.7188V20.8259H3.59375V22.9241H6.32812V35.625H8.93229V22.9241ZM16.4323 35.625H18.75V24.5982H16.4323V33.0357C15.9115 33.6607 15.4167 33.9732 14.9479 33.9732C14.6354 33.9732 14.4531 33.817 14.401 33.5045C14.3837 33.4598 14.375 33.1994 14.375 32.7232V24.5982H12.0573V33.3259C12.0573 34.0551 12.1267 34.5982 12.2656 34.9554C12.474 35.506 12.9774 35.7812 13.776 35.7812C14.6094 35.7812 15.4948 35.3274 16.4323 34.4196V35.625ZM27.6042 32.3214V27.9241C27.6042 26.8378 27.526 26.1012 27.3698 25.7143C27.0747 24.881 26.4583 24.4643 25.5208 24.4643C24.6528 24.4643 23.8455 24.8661 23.099 25.6696V20.8259H20.7812V35.625H23.099V34.5536C23.8802 35.372 24.6875 35.7812 25.5208 35.7812C26.4583 35.7812 27.0747 35.372 27.3698 34.5536C27.526 34.1518 27.6042 33.4077 27.6042 32.3214ZM36.4062 32.0982V31.808H34.0365C34.0365 32.567 34.0191 33.0208 33.9844 33.1696C33.8628 33.7054 33.5156 33.9732 32.9427 33.9732C32.1441 33.9732 31.7448 33.4598 31.7448 32.433V30.4911H36.4062V28.192C36.4062 27.0164 36.1719 26.1533 35.7031 25.6027C35.026 24.8438 34.1059 24.4643 32.9427 24.4643C31.7622 24.4643 30.8333 24.8438 30.1562 25.6027C29.6701 26.1533 29.4271 27.0164 29.4271 28.192V32.0536C29.4271 33.2292 29.6788 34.0923 30.1823 34.6429C30.8594 35.4018 31.7969 35.7812 32.9948 35.7812C34.2448 35.7812 35.1823 35.3869 35.8073 34.5982C36.1198 34.1964 36.3021 33.7946 36.3542 33.3929C36.3889 33.2589 36.4062 32.8274 36.4062 32.0982ZM20.5729 11.7188V7.03125C20.5729 6.00446 20.1997 5.49107 19.4531 5.49107C18.7066 5.49107 18.3333 6.00446 18.3333 7.03125V11.7188C18.3333 12.7604 18.7066 13.2812 19.4531 13.2812C20.1997 13.2812 20.5729 12.7604 20.5729 11.7188ZM39.2969 28.4821C39.2969 31.9643 39.0712 34.5685 38.6198 36.2946C38.3767 37.1726 37.8733 37.9092 37.1094 38.5045C36.3455 39.0997 35.4601 39.442 34.4531 39.5312C31.2587 39.8438 26.441 40 20 40C13.559 40 8.74132 39.8438 5.54688 39.5312C4.53993 39.442 3.65017 39.0997 2.8776 38.5045C2.10503 37.9092 1.6059 37.1726 1.38021 36.2946C0.928819 34.628 0.703125 32.0238 0.703125 28.4821C0.703125 25 0.928819 22.3958 1.38021 20.6696C1.62326 19.7917 2.12674 19.0551 2.89062 18.4598C3.65451 17.8646 4.54861 17.5149 5.57292 17.4107C8.75 17.1131 13.559 16.9643 20 16.9643C26.441 16.9643 31.2587 17.1131 34.4531 17.4107C35.4601 17.5149 36.3498 17.8646 37.1224 18.4598C37.895 19.0551 38.3941 19.7917 38.6198 20.6696C39.0712 22.3363 39.2969 24.9405 39.2969 28.4821ZM13.3073 0H15.9635L12.8125 8.90625V14.9554H10.2083V8.90625C9.96528 7.80506 9.43576 6.22768 8.61979 4.17411C7.97743 2.64137 7.41319 1.25 6.92708 0H9.6875L11.5365 5.87054L13.3073 0ZM22.9427 7.43304V11.3393C22.9427 12.5446 22.6997 13.4226 22.2135 13.9732C21.5538 14.7321 20.6337 15.1116 19.4531 15.1116C18.2899 15.1116 17.3785 14.7321 16.7188 13.9732C16.2326 13.4077 15.9896 12.5298 15.9896 11.3393V7.43304C15.9896 6.24256 16.2326 5.37202 16.7188 4.82143C17.3785 4.0625 18.2899 3.68304 19.4531 3.68304C20.6337 3.68304 21.5538 4.0625 22.2135 4.82143C22.6997 5.37202 22.9427 6.24256 22.9427 7.43304ZM31.6667 3.81696V14.9554H29.2969V13.7277C28.3767 14.6503 27.4826 15.1116 26.6146 15.1116C25.816 15.1116 25.3038 14.8363 25.0781 14.2857C24.9392 13.9286 24.8698 13.3705 24.8698 12.6116V3.81696H27.2396V12.0089C27.2396 12.5 27.2483 12.7604 27.2656 12.7902C27.3177 13.1176 27.5 13.2812 27.8125 13.2812C28.2812 13.2812 28.776 12.9613 29.2969 12.3214V3.81696H31.6667Z" fill="#F8F8F8"/>
</g>
<defs>
<clipPath id="clip0_46_208">
<rect width="40" height="40" fill="white"/>
</clipPath>
</defs>
</svg>
